<svg id="Capa_1" data-name="Capa 1" xmlns="http://www.w3.org/2000/svg" xmlns:xlink="http://www.w3.org/1999/xlink" viewBox="0 0 250.64 251.14"><defs><style>.cls-1{fill:none;}.cls-2{fill:#56f89a;}.cls-3{clip-path:url(#clip-path);}.cls-4{fill:#1c0d06;}.cls-5{fill:#fdcc9b;}.cls-6{fill:#fcbc85;}.cls-7{fill:#3b2519;}.cls-8{fill:#fff;}.cls-9{fill:#36221e;}.cls-10{fill:#f7945e;}.cls-11{fill:#f9aa8d;}.cls-12{fill:#c05371;}.cls-13{fill:#98375e;}.cls-14{fill:#342620;}</style><clipPath id="clip-path" transform="translate(-4.64 -16.28)"><circle class="cls-1" cx="129.46" cy="142.09" r="125.32"/></clipPath></defs><title>people</title><circle class="cls-2" cx="125.32" cy="125.32" r="125.32"/><g class="cls-3"><path class="cls-4" d="M129.67,175.41v92H65.3s0-39.46-7.06-70.89Z" transform="translate(-4.64 -16.28)"/><path class="cls-4" d="M129.18,175.41v92h64.37s0-39.46,7.05-70.89Z" transform="translate(-4.64 -16.28)"/><rect class="cls-5" x="110.34" y="200.87" width="29.4" height="32.92"/><path class="cls-6" d="M115,221a49.32,49.32,0,0,0,29.4,6.05v-9.93H115Z" transform="translate(-4.64 -16.28)"/><ellipse class="cls-6" cx="67.95" cy="149.82" rx="14.34" ry="16.36"/><ellipse class="cls-6" cx="182.12" cy="149.82" rx="14.34" ry="16.36"/><path class="cls-5" d="M186.7,134.84c0-24.1-17.64-41.74-57-41.74s-57,17.64-57,41.74-4.11,87.6,57,87.6S186.7,158.95,186.7,134.84Z" transform="translate(-4.64 -16.28)"/><ellipse class="cls-7" cx="97.26" cy="145.9" rx="6.17" ry="6.76"/><circle class="cls-8" cx="94.57" cy="142.92" r="1.85"/><path class="cls-9" d="M92,147.6c2.92,1.12,7.6-3.8,18.33.48,2,.78,3.12-6.67-8.38-6.67C92,141.41,90.26,146.93,92,147.6Z" transform="translate(-4.64 -16.28)"/><ellipse class="cls-7" cx="153.57" cy="145.9" rx="6.17" ry="6.76"/><circle class="cls-8" cx="150.88" cy="142.92" r="1.85"/><path class="cls-9" d="M167.32,147.6c-2.92,1.12-7.61-3.8-18.33.48-2,.78-3.12-6.67,8.38-6.67C167.32,141.41,169.09,146.93,167.32,147.6Z" transform="translate(-4.64 -16.28)"/><path class="cls-6" d="M129.67,186c-6.1,0-9.77-4.56-9.77-2.35s1.76,6.39,9.77,6.39,9.77-4.19,9.77-6.39S135.77,186,129.67,186Z" transform="translate(-4.64 -16.28)"/><path class="cls-6" d="M129.67,206.23c-2.11,0-3.38-1.58-3.38-.81s.61,2.21,3.38,2.21,3.38-1.45,3.38-2.21S131.78,206.23,129.67,206.23Z" transform="translate(-4.64 -16.28)"/><path class="cls-10" d="M129.67,200.61c-9.67,0-15.49-3.94-15.49-2.94s2.79,4.92,15.49,4.92,15.49-3.93,15.49-4.92S139.34,200.61,129.67,200.61Z" transform="translate(-4.64 -16.28)"/><circle class="cls-11" cx="89.32" cy="167.51" r="8.38"/><circle class="cls-11" cx="161.78" cy="167.51" r="8.38"/><path class="cls-12" d="M129.67,230.38v37H65.3C65.3,252.42,95.87,230.38,129.67,230.38Z" transform="translate(-4.64 -16.28)"/><path class="cls-12" d="M129.67,230.38v37H194C194,252.42,163.48,230.38,129.67,230.38Z" transform="translate(-4.64 -16.28)"/><path class="cls-12" d="M129.67,230.38v37H194C194,252.42,163.48,230.38,129.67,230.38Z" transform="translate(-4.64 -16.28)"/><path class="cls-13" d="M129.67,230.38a86.94,86.94,0,0,0-39.79,10c8.46,12.85,21.06,23.38,39.79,23.38s31.33-10.53,39.79-23.38A86.94,86.94,0,0,0,129.67,230.38Z" transform="translate(-4.64 -16.28)"/><path class="cls-12" d="M129.67,230.38a85.93,85.93,0,0,0-32.11,6.48c6.08,10.61,16,20.39,32.11,20.39s26-9.78,32.11-20.39A85.93,85.93,0,0,0,129.67,230.38Z" transform="translate(-4.64 -16.28)"/><path class="cls-5" d="M115,231.8s4.3,11.78,14.7,11.78,14.7-11.78,14.7-11.78S129.12,226.24,115,231.8Z" transform="translate(-4.64 -16.28)"/><path class="cls-13" d="M129.67,230.38a84.58,84.58,0,0,0-25.15,4c4.16,8.46,11.69,17.38,25.15,17.38s21-8.92,25.15-17.38A84.59,84.59,0,0,0,129.67,230.38Z" transform="translate(-4.64 -16.28)"/><path class="cls-12" d="M110.89,232.61c2.45,6.54,7.74,15.22,18.78,15.22s16.33-8.68,18.78-15.22a80.12,80.12,0,0,0-37.56,0Z" transform="translate(-4.64 -16.28)"/><path class="cls-5" d="M144.37,231.8s-1.91,11.78-14.7,11.78S115,231.8,115,231.8a34.49,34.49,0,0,1,29.39,0Z" transform="translate(-4.64 -16.28)"/><path class="cls-14" d="M129.67,65h-.43c-66.19.25-77.16,57.87-73.2,114.63S94,256.36,94,256.36c-18.52-19.4-14-64.2-14-64.2,8.08,12.08,19.21,13,19.21,13C78,191.54,79,144.37,94,141.41c14.14-2.79,33.36-16.9,35.5-18.49,2.14,1.6,21.36,15.7,35.5,18.49,15,3,16,50.12-5.25,63.8,0,0,11.13-1,19.21-13,0,0,4.55,44.8-14,64.2,0,0,34-19.84,37.92-76.72S195.86,65.27,129.67,65Z" transform="translate(-4.64 -16.28)"/></g></svg>